<svg xmlns="http://www.w3.org/2000/svg" viewBox="0 20 358 359">
<path d="M355.919 20.624C356.885 20.0812 358.051 20.767 358.051 21.8525V274.866C358.051 275.894 357.511 276.837 356.63 277.352L181.824 377.734C180.091 378.734 177.931 378.734 176.197 377.734L1.4209 277.323C0.539997 276.809 0.000105629 275.866 0 274.838V21.8525C0 20.767 1.19401 20.0812 2.13184 20.624L176.226 120.636H176.197C177.931 121.635 180.091 121.635 181.824 120.636L355.919 20.624ZM123.37 221.994C111.04 221.994 101.044 231.99 101.044 244.32C101.044 256.651 111.04 266.646 123.37 266.646C135.701 266.646 145.696 256.651 145.696 244.32C145.696 231.99 135.7 221.994 123.37 221.994ZM235.797 221.994C223.467 221.994 213.471 231.99 213.471 244.32C213.471 256.651 223.466 266.646 235.797 266.646C248.127 266.646 258.123 256.651 258.123 244.32C258.123 231.99 248.127 221.994 235.797 221.994Z" fill="url(#g)"/>
<defs>
<linearGradient id="g" x1="179.025" y1="20.434" x2="179.025" y2="378.486" gradientUnits="userSpaceOnUse">
<stop stop-color="#D98A52"/>
<stop offset=".5" stop-color="#C8743A"/>
<stop offset="1" stop-color="#A85A32"/>
</linearGradient>
</defs>
</svg>
